<svg xmlns="http://www.w3.org/2000/svg" width="375" viewBox="0 0 375 375" height="375" version="1.0"><defs><clipPath id="a"><path d="M 112.5 53.4375 L 262.5 53.4375 L 262.5 187.6875 L 112.5 187.6875 Z M 112.5 53.4375"/></clipPath></defs><path fill="#FFF" d="M-37.5 -37.5H412.5V412.5H-37.5z"/><path fill="#FFF" d="M-37.5 -37.5H412.5V412.5H-37.5z"/><path fill="#FF1616" d="M-37.5 -37.5H412.5V412.5H-37.5z"/><g clip-path="url(#a)"><path fill="#FFF" d="M 262.4375 187.6875 L 211.285156 187.6875 L 202.214844 178.855469 L 187.097656 164.136719 L 178.628906 155.894531 L 163.121094 140.789062 L 161.464844 139.175781 L 154.5 132.390625 L 154.300781 132.199219 L 138.789062 117.105469 L 132.085938 110.570312 L 131.074219 109.585938 L 124.3125 103 L 112.550781 91.550781 L 112.550781 77.773438 L 124.3125 89.226562 L 131.074219 95.808594 L 139.058594 103.582031 L 145.765625 110.117188 L 154.300781 118.425781 L 161.15625 125.101562 L 163.121094 127.011719 L 168.125 131.882812 L 192.777344 155.886719 L 201.242188 164.128906 L 216.359375 178.847656 L 242.425781 178.847656 L 228.179688 164.128906 L 220.203125 155.886719 L 182.136719 116.558594 L 175.363281 109.558594 L 180.933594 103.46875 L 217.253906 63.742188 L 192.078125 63.742188 L 163.121094 92.742188 L 161.074219 94.789062 L 154.300781 101.574219 L 154.300781 63.742188 L 131.023438 63.742188 L 131.074219 63.792969 L 131.074219 81.5 L 124.3125 74.914062 L 124.3125 53.4375 L 163.121094 53.4375 L 163.121094 79.492188 L 189.136719 53.4375 L 239.839844 53.4375 L 230.417969 63.742188 L 187.707031 110.464844 L 231.671875 155.894531 L 239.648438 164.136719 L 253.894531 178.855469 Z M 154.300781 141.078125 L 150.203125 137.089844 L 134.300781 121.601562 L 131.074219 118.460938 L 127.59375 115.066406 L 124.3125 111.875 L 112.550781 100.425781 L 112.550781 113.019531 L 121.210938 121.457031 L 124.3125 124.472656 L 127.921875 127.988281 L 131.074219 131.054688 L 144.113281 143.753906 L 151.078125 150.535156 L 154.296875 153.675781 L 154.296875 155.894531 L 131.074219 155.894531 L 131.074219 142.507812 L 124.316406 135.925781 L 124.316406 164.136719 L 163.121094 164.136719 L 163.121094 149.664062 L 157.171875 143.871094 Z M 154.300781 141.078125"/></g><g fill="#FFF"><g><g><path d="M 9.707031 0 L 9.707031 -36.535156 L 4.488281 -36.535156 L 4.488281 0 Z M 23.433594 -36.535156 L 10.699219 -19.570312 L 10.699219 -16.910156 L 24.636719 0 L 31.417969 0 L 16.023438 -18.371094 L 29.957031 -36.535156 Z M 23.433594 -36.535156" transform="translate(90.664 246.174)"/></g></g></g><g fill="#FFF"><g><g><path d="M 9.03125 -9.238281 L 23.851562 -9.238281 L 27.347656 0 L 32.984375 0 L 18.320312 -37.003906 L 14.457031 -37.003906 L -0.207031 0 L 5.480469 0 Z M 21.921875 -14.195312 L 10.960938 -14.195312 L 16.441406 -28.601562 Z M 21.921875 -14.195312" transform="translate(121.766 246.174)"/></g></g></g><g fill="#FFF"><g><g><path d="M 17.796875 -18.527344 L 11.640625 -18.527344 L 11.640625 -16.023438 L 24.949219 0 L 31.785156 0 L 20.25 -13.726562 C 26.515625 -14.824219 29.699219 -19.730469 29.699219 -24.894531 C 29.699219 -30.6875 25.730469 -37.003906 17.796875 -37.003906 L 4.488281 -37.003906 L 4.488281 0 L 9.707031 0 L 9.707031 -31.679688 L 17.796875 -31.679688 C 22.234375 -31.679688 24.425781 -28.027344 24.425781 -24.894531 C 24.425781 -21.710938 22.234375 -18.527344 17.796875 -18.527344 Z M 17.796875 -18.527344" transform="translate(154.85 246.174)"/></g></g></g><g fill="#FFF"><g><g><path d="M 26.773438 -5.269531 L 9.8125 -5.269531 L 9.8125 -16.023438 L 26.355469 -16.023438 L 26.355469 -21.347656 L 9.8125 -21.347656 L 9.8125 -31.628906 L 26.722656 -31.628906 L 26.722656 -36.898438 L 4.488281 -36.898438 L 4.488281 0 L 26.773438 0 Z M 26.773438 -5.269531" transform="translate(185.952 246.174)"/></g></g></g><g fill="#FFF"><g><g><path d="M 16.546875 -31.992188 L 23.328125 -31.992188 L 23.328125 -36.847656 L 4.488281 -36.847656 L 4.488281 -31.992188 L 11.273438 -31.992188 L 11.273438 -4.90625 L 4.488281 -4.90625 L 4.488281 0 L 23.328125 0 L 23.328125 -4.90625 L 16.546875 -4.90625 Z M 16.546875 -31.992188" transform="translate(215.07 246.174)"/></g></g></g><g fill="#FFF"><g><g><path d="M 4.488281 0 L 9.761719 0 L 9.761719 -25.730469 L 19.3125 -11.535156 L 22.285156 -11.535156 L 31.835938 -25.730469 L 31.835938 0 L 37.058594 0 L 37.058594 -36.535156 L 32.882812 -36.535156 L 20.824219 -18.789062 L 8.769531 -36.535156 L 4.488281 -36.535156 Z M 4.488281 0" transform="translate(242.832 246.174)"/></g></g></g><g fill="#FFF"><g><g><path d="M 11.378906 -31.890625 L 11.378906 0 L 16.648438 0 L 16.648438 -31.890625 L 27.660156 -31.890625 L 27.660156 -36.898438 L 0.3125 -36.898438 L 0.3125 -31.890625 Z M 11.378906 -31.890625" transform="translate(111.278 318.924)"/></g></g></g><g fill="#FFF"><g><g><path d="M 9.03125 -9.238281 L 23.851562 -9.238281 L 27.347656 0 L 32.984375 0 L 18.320312 -37.003906 L 14.457031 -37.003906 L -0.207031 0 L 5.480469 0 Z M 21.921875 -14.195312 L 10.960938 -14.195312 L 16.441406 -28.601562 Z M 21.921875 -14.195312" transform="translate(139.3 318.924)"/></g></g></g><g fill="#FFF"><g><g><path d="M 17.796875 -18.527344 L 11.640625 -18.527344 L 11.640625 -16.023438 L 24.949219 0 L 31.785156 0 L 20.25 -13.726562 C 26.515625 -14.824219 29.699219 -19.730469 29.699219 -24.894531 C 29.699219 -30.6875 25.730469 -37.003906 17.796875 -37.003906 L 4.488281 -37.003906 L 4.488281 0 L 9.707031 0 L 9.707031 -31.679688 L 17.796875 -31.679688 C 22.234375 -31.679688 24.425781 -28.027344 24.425781 -24.894531 C 24.425781 -21.710938 22.234375 -18.527344 17.796875 -18.527344 Z M 17.796875 -18.527344" transform="translate(172.385 318.924)"/></g></g></g><g fill="#FFF"><g><g><path d="M 26.773438 -5.269531 L 9.8125 -5.269531 L 9.8125 -16.023438 L 26.355469 -16.023438 L 26.355469 -21.347656 L 9.8125 -21.347656 L 9.8125 -31.628906 L 26.722656 -31.628906 L 26.722656 -36.898438 L 4.488281 -36.898438 L 4.488281 0 L 26.773438 0 Z M 26.773438 -5.269531" transform="translate(203.486 318.924)"/></g></g></g><g fill="#FFF"><g><g><path d="M 9.707031 0 L 9.707031 -36.535156 L 4.488281 -36.535156 L 4.488281 0 Z M 23.433594 -36.535156 L 10.699219 -19.570312 L 10.699219 -16.910156 L 24.636719 0 L 31.417969 0 L 16.023438 -18.371094 L 29.957031 -36.535156 Z M 23.433594 -36.535156" transform="translate(232.605 318.924)"/></g></g></g></svg>